<mxfile host="app.diagrams.net" modified="2022-10-13T02:08:20.822Z" agent="5.0 (Windows NT 10.0; Win64; x64) AppleWebKit/537.36 (KHTML, like Gecko) Chrome/105.0.0.0 Safari/537.36" etag="rDMeoryITGDzQxlTxdMX" version="20.2.7" type="github">
  <diagram id="C5RBs43oDa-KdzZeNtuy" name="Page-1">
    <mxGraphModel dx="850" dy="583" grid="1" gridSize="10" guides="1" tooltips="1" connect="1" arrows="1" fold="1" page="1" pageScale="1" pageWidth="827" pageHeight="1169" math="0" shadow="0">
      <root>
        <mxCell id="WIyWlLk6GJQsqaUBKTNV-0" />
        <mxCell id="WIyWlLk6GJQsqaUBKTNV-1" parent="WIyWlLk6GJQsqaUBKTNV-0" />
        <mxCell id="2qad8ecKXoKiEnVZrQ0q-31" value="" style="edgeStyle=orthogonalEdgeStyle;orthogonalLoop=1;jettySize=auto;html=1;entryX=0.468;entryY=0;entryDx=0;entryDy=0;entryPerimeter=0;" edge="1" parent="WIyWlLk6GJQsqaUBKTNV-1" source="WIyWlLk6GJQsqaUBKTNV-10" target="2qad8ecKXoKiEnVZrQ0q-14">
          <mxGeometry relative="1" as="geometry" />
        </mxCell>
        <mxCell id="WIyWlLk6GJQsqaUBKTNV-10" value="a%dive==0 &amp;amp;&amp;amp; b%divide==0" style="rhombus;whiteSpace=wrap;html=1;shadow=0;fontFamily=Helvetica;fontSize=12;align=center;strokeWidth=1;spacing=6;spacingTop=-4;" parent="WIyWlLk6GJQsqaUBKTNV-1" vertex="1">
          <mxGeometry x="289.13" y="260" width="187.25" height="80" as="geometry" />
        </mxCell>
        <mxCell id="2qad8ecKXoKiEnVZrQ0q-2" value="" style="verticalLabelPosition=bottom;verticalAlign=top;html=1;shape=hexagon;perimeter=hexagonPerimeter2;arcSize=6;size=0.1875;rounded=0;shadow=0;glass=0;" vertex="1" parent="WIyWlLk6GJQsqaUBKTNV-1">
          <mxGeometry x="304.25" y="120" width="160" height="40" as="geometry" />
        </mxCell>
        <mxCell id="2qad8ecKXoKiEnVZrQ0q-4" value="&lt;br&gt;&amp;amp;a, &amp;amp;b" style="html=1;strokeWidth=1;shape=manualInput;whiteSpace=wrap;rounded=0;size=27;arcSize=11;shadow=0;glass=0;" vertex="1" parent="WIyWlLk6GJQsqaUBKTNV-1">
          <mxGeometry x="313.5" y="180" width="138.5" height="60" as="geometry" />
        </mxCell>
        <mxCell id="2qad8ecKXoKiEnVZrQ0q-5" value="&lt;span style=&quot;color: rgb(0, 0, 0); font-family: Helvetica; font-size: 12px; font-style: normal; font-variant-ligatures: normal; font-variant-caps: normal; font-weight: 400; letter-spacing: normal; orphans: 2; text-indent: 0px; text-transform: none; widows: 2; word-spacing: 0px; -webkit-text-stroke-width: 0px; background-color: rgb(248, 249, 250); text-decoration-thickness: initial; text-decoration-style: initial; text-decoration-color: initial; float: none; display: inline !important;&quot;&gt;G.C.D. START&lt;/span&gt;" style="strokeWidth=1;html=1;shape=mxgraph.flowchart.terminator;whiteSpace=wrap;rounded=0;shadow=0;glass=0;align=center;" vertex="1" parent="WIyWlLk6GJQsqaUBKTNV-1">
          <mxGeometry x="321.5" y="50" width="117" height="40" as="geometry" />
        </mxCell>
        <mxCell id="2qad8ecKXoKiEnVZrQ0q-27" value="" style="edgeStyle=orthogonalEdgeStyle;orthogonalLoop=1;jettySize=auto;html=1;entryX=0.502;entryY=0.217;entryDx=0;entryDy=0;entryPerimeter=0;" edge="1" parent="WIyWlLk6GJQsqaUBKTNV-1" source="2qad8ecKXoKiEnVZrQ0q-12" target="2qad8ecKXoKiEnVZrQ0q-4">
          <mxGeometry relative="1" as="geometry" />
        </mxCell>
        <mxCell id="2qad8ecKXoKiEnVZrQ0q-12" value="int a, b&lt;br&gt;int divide=1, gcd=1" style="text;html=1;resizable=0;autosize=1;align=center;verticalAlign=middle;points=[];fillColor=none;strokeColor=none;rounded=0;shadow=0;glass=0;" vertex="1" parent="WIyWlLk6GJQsqaUBKTNV-1">
          <mxGeometry x="322.75" y="120" width="120" height="40" as="geometry" />
        </mxCell>
        <mxCell id="2qad8ecKXoKiEnVZrQ0q-14" value="gcd=divide" style="rounded=0;whiteSpace=wrap;html=1;shadow=0;glass=0;strokeWidth=1;" vertex="1" parent="WIyWlLk6GJQsqaUBKTNV-1">
          <mxGeometry x="330" y="360" width="112.75" height="30" as="geometry" />
        </mxCell>
        <mxCell id="2qad8ecKXoKiEnVZrQ0q-41" value="" style="edgeStyle=orthogonalEdgeStyle;orthogonalLoop=1;jettySize=auto;html=1;" edge="1" parent="WIyWlLk6GJQsqaUBKTNV-1" source="2qad8ecKXoKiEnVZrQ0q-15" target="2qad8ecKXoKiEnVZrQ0q-18">
          <mxGeometry relative="1" as="geometry" />
        </mxCell>
        <mxCell id="2qad8ecKXoKiEnVZrQ0q-15" value="divide&amp;gt;=a || divide&amp;gt;=b" style="rhombus;whiteSpace=wrap;html=1;shadow=0;fontFamily=Helvetica;fontSize=12;align=center;strokeWidth=1;spacing=6;spacingTop=-4;" vertex="1" parent="WIyWlLk6GJQsqaUBKTNV-1">
          <mxGeometry x="299.19" y="410" width="174.37" height="60" as="geometry" />
        </mxCell>
        <mxCell id="2qad8ecKXoKiEnVZrQ0q-40" value="" style="edgeStyle=orthogonalEdgeStyle;orthogonalLoop=1;jettySize=auto;html=1;exitX=0.496;exitY=0.883;exitDx=0;exitDy=0;exitPerimeter=0;" edge="1" parent="WIyWlLk6GJQsqaUBKTNV-1" source="2qad8ecKXoKiEnVZrQ0q-16" target="2qad8ecKXoKiEnVZrQ0q-17">
          <mxGeometry relative="1" as="geometry" />
        </mxCell>
        <mxCell id="2qad8ecKXoKiEnVZrQ0q-16" value="&lt;br&gt;G.C.D" style="shape=document;whiteSpace=wrap;html=1;boundedLbl=1;shadow=0;glass=0;strokeWidth=1;" vertex="1" parent="WIyWlLk6GJQsqaUBKTNV-1">
          <mxGeometry x="331.43" y="490" width="120" height="60" as="geometry" />
        </mxCell>
        <mxCell id="2qad8ecKXoKiEnVZrQ0q-17" value="&lt;span style=&quot;color: rgb(0, 0, 0); font-family: Helvetica; font-size: 12px; font-style: normal; font-variant-ligatures: normal; font-variant-caps: normal; font-weight: 400; letter-spacing: normal; orphans: 2; text-indent: 0px; text-transform: none; widows: 2; word-spacing: 0px; -webkit-text-stroke-width: 0px; background-color: rgb(248, 249, 250); text-decoration-thickness: initial; text-decoration-style: initial; text-decoration-color: initial; float: none; display: inline !important;&quot;&gt;END&lt;/span&gt;" style="strokeWidth=1;html=1;shape=mxgraph.flowchart.terminator;whiteSpace=wrap;rounded=0;shadow=0;glass=0;align=center;" vertex="1" parent="WIyWlLk6GJQsqaUBKTNV-1">
          <mxGeometry x="332.93" y="570" width="117" height="40" as="geometry" />
        </mxCell>
        <mxCell id="2qad8ecKXoKiEnVZrQ0q-18" value="divide++" style="rounded=0;whiteSpace=wrap;html=1;shadow=0;glass=0;strokeWidth=1;" vertex="1" parent="WIyWlLk6GJQsqaUBKTNV-1">
          <mxGeometry x="140" y="425" width="120" height="30" as="geometry" />
        </mxCell>
        <mxCell id="2qad8ecKXoKiEnVZrQ0q-22" value="" style="endArrow=classic;html=1;entryX=0.477;entryY=0;entryDx=0;entryDy=0;entryPerimeter=0;" edge="1" parent="WIyWlLk6GJQsqaUBKTNV-1" target="2qad8ecKXoKiEnVZrQ0q-12">
          <mxGeometry width="50" height="50" relative="1" as="geometry">
            <mxPoint x="380" y="90" as="sourcePoint" />
            <mxPoint x="430" y="40" as="targetPoint" />
          </mxGeometry>
        </mxCell>
        <mxCell id="2qad8ecKXoKiEnVZrQ0q-29" value="" style="endArrow=classic;html=1;exitX=0.5;exitY=1;exitDx=0;exitDy=0;" edge="1" parent="WIyWlLk6GJQsqaUBKTNV-1" source="2qad8ecKXoKiEnVZrQ0q-4">
          <mxGeometry width="50" height="50" relative="1" as="geometry">
            <mxPoint x="390" y="100" as="sourcePoint" />
            <mxPoint x="383" y="260" as="targetPoint" />
          </mxGeometry>
        </mxCell>
        <mxCell id="2qad8ecKXoKiEnVZrQ0q-33" value="" style="endArrow=classic;html=1;" edge="1" parent="WIyWlLk6GJQsqaUBKTNV-1">
          <mxGeometry width="50" height="50" relative="1" as="geometry">
            <mxPoint x="386" y="390" as="sourcePoint" />
            <mxPoint x="385.88" y="410" as="targetPoint" />
          </mxGeometry>
        </mxCell>
        <mxCell id="2qad8ecKXoKiEnVZrQ0q-39" value="" style="endArrow=classic;html=1;exitX=0.5;exitY=1;exitDx=0;exitDy=0;" edge="1" parent="WIyWlLk6GJQsqaUBKTNV-1" source="2qad8ecKXoKiEnVZrQ0q-15">
          <mxGeometry width="50" height="50" relative="1" as="geometry">
            <mxPoint x="390" y="440" as="sourcePoint" />
            <mxPoint x="386" y="490" as="targetPoint" />
          </mxGeometry>
        </mxCell>
        <mxCell id="2qad8ecKXoKiEnVZrQ0q-46" value="" style="edgeStyle=segmentEdgeStyle;endArrow=classic;html=1;rounded=0;exitX=0.5;exitY=0;exitDx=0;exitDy=0;" edge="1" parent="WIyWlLk6GJQsqaUBKTNV-1" source="2qad8ecKXoKiEnVZrQ0q-18">
          <mxGeometry width="50" height="50" relative="1" as="geometry">
            <mxPoint x="200" y="420" as="sourcePoint" />
            <mxPoint x="380" y="250" as="targetPoint" />
            <Array as="points">
              <mxPoint x="200" y="250" />
            </Array>
          </mxGeometry>
        </mxCell>
        <mxCell id="2qad8ecKXoKiEnVZrQ0q-47" value="" style="edgeStyle=segmentEdgeStyle;endArrow=classic;html=1;rounded=0;exitX=0;exitY=0.5;exitDx=0;exitDy=0;" edge="1" parent="WIyWlLk6GJQsqaUBKTNV-1" source="WIyWlLk6GJQsqaUBKTNV-10">
          <mxGeometry width="50" height="50" relative="1" as="geometry">
            <mxPoint x="240" y="280" as="sourcePoint" />
            <mxPoint x="383" y="400" as="targetPoint" />
            <Array as="points">
              <mxPoint x="230" y="300" />
            </Array>
          </mxGeometry>
        </mxCell>
        <mxCell id="2qad8ecKXoKiEnVZrQ0q-48" value="No" style="text;html=1;resizable=0;autosize=1;align=center;verticalAlign=middle;points=[];fillColor=none;strokeColor=none;rounded=0;shadow=0;glass=0;opacity=0;" vertex="1" parent="WIyWlLk6GJQsqaUBKTNV-1">
          <mxGeometry x="240" y="280" width="40" height="30" as="geometry" />
        </mxCell>
        <mxCell id="2qad8ecKXoKiEnVZrQ0q-50" value="No" style="text;html=1;resizable=0;autosize=1;align=center;verticalAlign=middle;points=[];fillColor=none;strokeColor=none;rounded=0;shadow=0;glass=0;opacity=0;" vertex="1" parent="WIyWlLk6GJQsqaUBKTNV-1">
          <mxGeometry x="264.25" y="420" width="40" height="30" as="geometry" />
        </mxCell>
        <mxCell id="2qad8ecKXoKiEnVZrQ0q-51" value="Yes" style="text;html=1;resizable=0;autosize=1;align=center;verticalAlign=middle;points=[];fillColor=none;strokeColor=none;rounded=0;shadow=0;glass=0;opacity=0;" vertex="1" parent="WIyWlLk6GJQsqaUBKTNV-1">
          <mxGeometry x="340" y="330" width="40" height="30" as="geometry" />
        </mxCell>
        <mxCell id="2qad8ecKXoKiEnVZrQ0q-52" value="Yes" style="text;html=1;resizable=0;autosize=1;align=center;verticalAlign=middle;points=[];fillColor=none;strokeColor=none;rounded=0;shadow=0;glass=0;opacity=0;" vertex="1" parent="WIyWlLk6GJQsqaUBKTNV-1">
          <mxGeometry x="350" y="460" width="40" height="30" as="geometry" />
        </mxCell>
      </root>
    </mxGraphModel>
  </diagram>
</mxfile>
